<?xml version="1.0"?>
<!DOCTYPE svg PUBLIC "-//W3C//DTD SVG 1.1//EN"
        "http://www.w3.org/Graphics/SVG/1.1/DTD/svg11.dtd">

<svg version="1.1" xmlns="http://www.w3.org/2000/svg"
     xmlns:xlink="http://www.w3.org/1999/xlink"
     width="600px" height="600px"
     viewBox="0 0 3 2"
     preserveAspectRatio="xMidYMid">
    
    
<!--    Polygons-->
    <g transform="scale(0.0015 0.0015) translate(30 110)" fill="yellow" stroke="black" stroke-width="5">
        <polygon points="121.362009659806,193.593079569455 78.6379903401938,193.593079569455 40.1449790215616,175.055822316931 13.5069886813678,141.652838955286 4,100 13.5069886813678,58.3471610447144 40.1449790215616,24.9441776830691 78.6379903401938,6.40692043054493 121.362009659806,6.40692043054493 159.855020978438,24.9441776830691 186.493011318632,58.3471610447144 196,100 186.493011318632,141.652838955286 159.855020978438,175.055822316931">
            <animateTransform attributeName="transform"
                              type="rotate"
                              from="0 100 100"
                              to="360 100 100"
                              dur="5s"
                              repeatCount="indefinite"/>
        </polygon>
    </g>

    <g transform="scale(0.0015 0.0015) translate(560 300)" fill="yellow" stroke="black" stroke-width="5">
    <polygon points="121.362009659806,193.593079569455 78.6379903401938,193.593079569455 40.1449790215616,175.055822316931 13.5069886813678,141.652838955286 4,100 13.5069886813678,58.3471610447144 40.1449790215616,24.9441776830691 78.6379903401938,6.40692043054493 121.362009659806,6.40692043054493 159.855020978438,24.9441776830691 186.493011318632,58.3471610447144 196,100 186.493011318632,141.652838955286 159.855020978438,175.055822316931">
        <animateTransform attributeName="transform"
                          type="rotate"
                          from="0 100 100"
                          to="360 100 100"
                          dur="5s"
                          repeatCount="indefinite"/>
    </polygon>
    </g>
    
    <g transform="scale(0.0013 0.0013) translate(1515 102)" fill="yellow" stroke="black" stroke-width="5">
        <polygon points="121.362009659806,193.593079569455 78.6379903401938,193.593079569455 40.1449790215616,175.055822316931 13.5069886813678,141.652838955286 4,100 13.5069886813678,58.3471610447144 40.1449790215616,24.9441776830691 78.6379903401938,6.40692043054493 121.362009659806,6.40692043054493 159.855020978438,24.9441776830691 186.493011318632,58.3471610447144 196,100 186.493011318632,141.652838955286 159.855020978438,175.055822316931">
            <animateTransform attributeName="transform"
                              type="rotate"
                              from="0 100 100"
                              to="360 100 100"
                              dur="5s"
                              repeatCount="indefinite"/>
        </polygon>
    </g>

    <g transform="scale(0.0013 0.0013) translate(1995 268)" fill="yellow" stroke="black" stroke-width="5">
        <polygon points="121.362009659806,193.593079569455 78.6379903401938,193.593079569455 40.1449790215616,175.055822316931 13.5069886813678,141.652838955286 4,100 13.5069886813678,58.3471610447144 40.1449790215616,24.9441776830691 78.6379903401938,6.40692043054493 121.362009659806,6.40692043054493 159.855020978438,24.9441776830691 186.493011318632,58.3471610447144 196,100 186.493011318632,141.652838955286 159.855020978438,175.055822316931">
            <animateTransform attributeName="transform"
                              type="rotate"
                              from="0 100 100"
                              to="360 100 100"
                              dur="5s"
                              repeatCount="indefinite"/>
        </polygon>
    </g>

    <g transform="scale(0.0017 0.0017) translate(520 575)" fill="yellow" stroke="black" stroke-width="5">
        <polygon points="121.362009659806,193.593079569455 78.6379903401938,193.593079569455 40.1449790215616,175.055822316931 13.5069886813678,141.652838955286 4,100 13.5069886813678,58.3471610447144 40.1449790215616,24.9441776830691 78.6379903401938,6.40692043054493 121.362009659806,6.40692043054493 159.855020978438,24.9441776830691 186.493011318632,58.3471610447144 196,100 186.493011318632,141.652838955286 159.855020978438,175.055822316931">
            <animateTransform attributeName="transform"
                              type="rotate"
                              from="0 100 100"
                              to="360 100 100"
                              dur="5s"
                              repeatCount="indefinite"/>
        </polygon>
    </g>

    <g transform="scale(0.0017 0.0017) translate(1030 760)" fill="yellow" stroke="black" stroke-width="5">
        <polygon points="121.362009659806,193.593079569455 78.6379903401938,193.593079569455 40.1449790215616,175.055822316931 13.5069886813678,141.652838955286 4,100 13.5069886813678,58.3471610447144 40.1449790215616,24.9441776830691 78.6379903401938,6.40692043054493 121.362009659806,6.40692043054493 159.855020978438,24.9441776830691 186.493011318632,58.3471610447144 196,100 186.493011318632,141.652838955286 159.855020978438,175.055822316931">
            <animateTransform attributeName="transform"
                              type="rotate"
                              from="0 100 100"
                              to="360 100 100"
                              dur="5s"
                              repeatCount="indefinite"/>
        </polygon>
    </g>

    <!--Planks-->
    <polygon points="1,1.4 2,1.4 2,1.6 1,1.6"
             fill="red"
             transform="rotate(20 0 0)
                        translate(0.35 0.12)
                        scale(1,0.4)
                        "

    />

    <polygon points="1,1.4 2,1.4 2,1.6 1,1.6"
             fill="red"
             transform="rotate(20 0 0)
                        translate(-0.63 -0.22)
                        scale(0.9,0.3)
                        "

    />

    <polygon points="1,1.4 2,1.4 2,1.6 1,1.6"
             fill="red"
             transform="rotate(20 0 0)
                        translate(1.34 -0.775)
                        scale(0.7,0.2)
                        "

    />

    <!--Blue triangle-->
    <polygon points="1.4,2 1.5,1.3 1.6,2"
             fill="blue"/>
    <!--Purple triangle-->
    <polygon points="0.53,1 0.6,0.45 0.67,1"
             fill="purple"/>
    <!--    Green triangle-->
    <polygon points="2.35,0.75 2.4,0.35 2.45,0.75"
             fill="green"/>
</svg>